# xmcd
#
# Track frame offsets:
#	179
#	15510
#	26708
#	42022
#	59246
#	75860
#	90936
#	105757
#	116978
#	135280
#
# Disc length: 2001 seconds
# Revision: 6
# Processed by: cddbd v1.5.2PL0 Copyright (c) Steve Scherf et al.
# Submitted via: dBpowerAMP V12.0
#
DISCID=6a07cf0a
DTITLE=Johnny Cash - Complete Columbia Album Collection, Disc 49 [Rockabilly Blues]
DYEAR=1980
DGENRE=Country
TTITLE0=Cold Lonesome Morning
TTITLE1=Without Love
TTITLE2=W-O-M-A-N
TTITLE3=The Cowboy Who Started the Fight
TTITLE4=The Twentieth Century Is Almost Over
TTITLE5=Rockabilly Blues (Texas 1955)
TTITLE6=The Last Time
TTITLE7=She's a Go-er
TTITLE8=It Ain't Nothing New Babe
TTITLE9=One Way Rider
EXTD=
EXTT0=
EXTT1=
EXTT2=
EXTT3=
EXTT4=
EXTT5=
EXTT6=
EXTT7=
EXTT8=
EXTT9=
PLAYORDER=
